<svg width="50" height="44" viewBox="0 0 50 44" fill="none" xmlns="http://www.w3.org/2000/svg">
<path d="M0.5 27.5C4.5 27.5 12.2 23.5 15 13.5C16.2047 9.19764 20.5 3.5 26.5 2C29.5 1.24993 36 6.67572e-05 40.5 8.00004C42 11.5001 40.5 18 34.5 18.5C33.3333 18.6667 30.5 18.5 29.5 15C30.5 16 34 17.5 34.5 13.5C34.6667 12 34 9.00004 30 9.00004C28.3333 9.16671 25 10.5 24 15C23.5127 17.193 23.6932 21.1931 26.5 24C28.5 26 32.6 27.7 37 26.5C38 26.1667 39.5427 25.9574 42 23.5C44 21.5 47.5 20 49.5 20M0.5 33.5C2.16667 31.6667 7.3 28.6 12.5 33C15.1948 35.2802 20.4 38.1 26 32.5C27.1042 31.3958 30.5 28.5 36 32.5C39.6992 35.1903 42 37.1 46 35.5C46.8333 35.1667 49.1 33.8 49.5 33M0.5 40.5C2.16667 38.6667 7.3 35.6 12.5 40C15.1948 42.2802 20.4 45.1 26 39.5C27.1042 38.3958 30.5 35.5 36 39.5C39.6992 42.1903 42 44.1 46 42.5C46.8333 42.1667 49.1 40.8 49.5 40" stroke="black"/>
</svg>
