<svg width="24" height="24" viewBox="0 0 24 24" fill="none" xmlns="http://www.w3.org/2000/svg">
<path d="M12.0142 1.95312C6.49136 1.95312 2.01416 6.43013 2.01416 11.9531C2.01416 17.4761 6.49136 21.9531 12.0142 21.9531C17.537 21.9531 22.0142 17.4761 22.0142 11.9531C22.0142 6.43013 17.537 1.95312 12.0142 1.95312ZM12.0142 3.95312C16.4325 3.95312 20.0142 7.53512 20.0142 11.9531C20.0142 16.3711 16.4325 19.9531 12.0142 19.9531C7.59586 19.9531 4.01416 16.3711 4.01416 11.9531C4.01416 7.53512 7.59586 3.95312 12.0142 3.95312ZM9.63916 8.10913C9.27046 8.30713 9.01416 8.67812 9.01416 9.20312V14.7031C9.01416 15.7521 10.0581 16.2551 10.9204 15.7651L14.983 13.4531C16.3614 12.5981 16.3116 11.2781 14.983 10.4531L10.9204 8.14113C10.4893 7.89613 10.0079 7.91113 9.63916 8.10913Z" fill="#E5EDEA"/>
</svg>
