<svg width="24" height="24" viewBox="0 0 24 24" fill="none" xmlns="http://www.w3.org/2000/svg">
<path d="M11.0299 2.92981C10.6399 2.93071 10.2259 3.05992 9.9679 3.21112C9.5099 3.47872 5.9989 5.92982 5.9989 5.92982C5.9989 5.92982 4.3249 5.92781 3.9989 5.92982C2.9179 5.93661 2.0069 6.86251 1.9989 7.92981V15.9298C2.0109 17.0436 2.8659 17.9403 3.9989 17.9298C4.2819 17.9272 5.9989 17.9298 5.9989 17.9298C5.9989 17.9298 9.57791 20.4055 10.0299 20.6798C10.2919 20.8389 10.5899 20.9345 10.9989 20.9298C12.1169 20.9169 13.0119 19.9898 12.9989 18.8986V11.9298V4.92981C12.9979 3.80691 12.1109 2.92741 11.0299 2.92981ZM18.9049 5.08612C18.6499 5.06642 18.3959 5.12521 18.1869 5.30481C17.7669 5.66411 17.7329 6.32292 18.0929 6.74232C19.3259 8.18182 19.9989 9.99432 19.9989 11.9298C19.9989 13.8618 19.3219 15.679 18.0929 17.1173C17.7339 17.5372 17.7669 18.1648 18.1869 18.5236C18.6059 18.8823 19.2339 18.8497 19.5929 18.4298C21.1279 16.6326 21.9989 14.3426 21.9989 11.9298C21.9989 9.51252 21.1339 7.22842 19.5929 5.42981C19.4129 5.22011 19.1599 5.10582 18.9049 5.08612ZM16.1239 7.92981C15.8709 7.89471 15.6249 7.95081 15.4049 8.11731C14.9649 8.45051 14.8529 9.08311 15.1869 9.52361C15.7049 10.209 15.9989 11.042 15.9989 11.9298C15.9989 12.808 15.7029 13.6485 15.1869 14.3361C14.8549 14.7777 14.9639 15.4107 15.4049 15.7423C15.8469 16.074 16.4799 15.9652 16.8109 15.5236C17.5859 14.4927 17.9989 13.2451 17.9989 11.9298C17.9989 10.6043 17.5909 9.36711 16.8109 8.33611C16.6449 8.11581 16.3769 7.96501 16.1239 7.92981Z" fill="#393939"/>
</svg>
